<?xml version="1.0" encoding="UTF-8"?><svg id="Lager_1" xmlns="http://www.w3.org/2000/svg" viewBox="0 0 495.17 491.93"><defs><style>.cls-1{fill:#fff;}.cls-2{fill:#333;}</style></defs><path class="cls-1" d="M351.93,193.51c-.44-3.85-.54-7.05-1.2-10.12-6.77-31.44-25.2-53.79-53.89-67.66-24.19-11.69-50.06-14.31-76.42-11.58-46.14,4.77-80.78,26.52-99.16,70.34-11.04,26.33-12.58,53.89-7.86,81.9,9.92,58.95,52.98,95,110.77,92.13,33.88-1.69,58.11-18.26,71.88-49.39,3.22-7.28,5.36-15.03,8.55-24.16v68.63c16.15,0,31.74-.23,47.32,.12,5.62,.13,7.31-1.51,7.28-7.19-.24-35.29-.23-70.58,0-105.87,.04-5.7-1.35-7.71-7.45-7.66-36.58,.29-73.16,.14-109.74,.16-2.08,0-4.15,.23-6.51,.37v23.96h58.51c-2.75,7.78-4.76,14.46-7.44,20.87-20.25,48.43-77.41,42.19-100,11.57-16.42-22.25-20.29-47.13-15.12-73.7,4.04-20.8,13.95-38.08,32.54-49.33,28.74-17.39,77.06-9.08,85.23,32.99,.82,4.2,3.48,4.22,6.58,4.22,16.9,0,33.8,0,50.7-.03,1.46,0,2.91-.3,5.43-.57Z"/><path class="cls-2" d="M351.93,193.51c-2.52,.27-3.98,.57-5.43,.57-16.9,.03-33.8,.02-50.7,.03-3.1,0-5.77-.02-6.58-4.22-8.18-42.08-56.49-50.39-85.23-32.99-18.59,11.25-28.5,28.53-32.54,49.33-5.17,26.57-1.3,51.46,15.12,73.7,22.6,30.62,79.75,36.86,100-11.57,2.68-6.41,4.69-13.09,7.44-20.87h-58.51v-23.96c2.36-.14,4.44-.37,6.51-.37,36.58-.02,73.16,.13,109.74-.16,6.1-.05,7.48,1.96,7.45,7.66-.22,35.29-.23,70.58,0,105.87,.04,5.68-1.66,7.32-7.28,7.19-15.57-.36-31.16-.12-47.32-.12v-68.63c-3.19,9.12-5.33,16.88-8.55,24.16-13.78,31.13-38,47.71-71.88,49.39-57.79,2.88-100.85-33.17-110.77-92.13-4.71-28.01-3.18-55.57,7.86-81.9,18.37-43.82,53.02-65.57,99.16-70.34,26.36-2.73,52.23-.11,76.42,11.58,28.69,13.87,47.11,36.22,53.89,67.66,.66,3.08,.76,6.28,1.2,10.12Z"/><path class="cls-2" d="M246.49,0c78.21,2.97,146.42,40.45,193.72,115.04,8.22,12.97,17.81,25.11,25.51,38.37,46.31,79.71,37.23,184.37-21.73,255.2-38.03,45.69-86.49,73.18-145.32,81.16-51.18,6.94-99.49-2.83-144.47-28.58-17.58-10.06-36.43-18.23-52.89-29.83C43.96,390.98,9.79,335.61,1.82,265.77-7.64,182.79,19.77,112.77,82.29,57.6,126.11,18.92,178.42,.64,246.49,0Zm-9.77,463.86c124.84,.02,226.74-101.36,226.86-225.71,.13-125.67-101.14-227.56-226.24-227.61C112.1,10.48,10.24,111.82,10.16,236.56c-.08,125.55,101.32,227.28,226.55,227.3Z"/></svg>