<?xml version="1.0" encoding="UTF-8"?><svg id="Lager_1" xmlns="http://www.w3.org/2000/svg" viewBox="0 0 24 24"><defs><style>.cls-1{fill:#fff;}.cls-2{fill:#333;}</style></defs><path class="cls-2" d="M19,0H5C2.24,0,0,2.24,0,5v14c0,2.76,2.24,5,5,5h14c2.76,0,5-2.24,5-5V5c0-2.76-2.24-5-5-5Z"/><path class="cls-1" d="M9.22,18.1c5.66,0,8.76-4.69,8.76-8.76,0-.13,0-.27,0-.4,.6-.43,1.12-.98,1.54-1.59-.55,.24-1.14,.41-1.77,.48,.64-.38,1.12-.98,1.35-1.7-.59,.35-1.25,.61-1.95,.75-.56-.6-1.36-.97-2.25-.97-1.7,0-3.08,1.38-3.08,3.08,0,.24,.03,.48,.08,.7-2.56-.13-4.83-1.35-6.34-3.22-.26,.45-.42,.98-.42,1.55,0,1.07,.54,2.01,1.37,2.56-.5-.02-.98-.15-1.39-.38,0,.01,0,.03,0,.04,0,1.49,1.06,2.73,2.47,3.02-.26,.07-.53,.11-.81,.11-.2,0-.39-.02-.58-.06,.39,1.22,1.53,2.11,2.87,2.14-1.05,.83-2.38,1.32-3.82,1.32-.25,0-.49-.01-.73-.04,1.36,.87,2.98,1.38,4.72,1.38"/></svg>